<mxfile host="app.diagrams.net" modified="2022-04-28T08:51:21.088Z" agent="5.0 (Macintosh; Intel Mac OS X 10_15_7) AppleWebKit/605.1.15 (KHTML, like Gecko) Version/15.2 Safari/605.1.15" etag="zkYMo9WQpLWgKfFYMS7L" version="17.1.1" type="github">
  <diagram id="C5RBs43oDa-KdzZeNtuy" name="Page-1">
    <mxGraphModel dx="1018" dy="648" grid="1" gridSize="10" guides="1" tooltips="1" connect="1" arrows="1" fold="1" page="1" pageScale="1" pageWidth="827" pageHeight="1169" math="0" shadow="0">
      <root>
        <mxCell id="WIyWlLk6GJQsqaUBKTNV-0" />
        <mxCell id="WIyWlLk6GJQsqaUBKTNV-1" parent="WIyWlLk6GJQsqaUBKTNV-0" />
        <mxCell id="ZBhVcWiEAXyir8KUt6d2-6" style="edgeStyle=orthogonalEdgeStyle;rounded=0;orthogonalLoop=1;jettySize=auto;html=1;exitX=1;exitY=0.5;exitDx=0;exitDy=0;entryX=0;entryY=0.5;entryDx=0;entryDy=0;" edge="1" parent="WIyWlLk6GJQsqaUBKTNV-1" source="WIyWlLk6GJQsqaUBKTNV-6" target="ZBhVcWiEAXyir8KUt6d2-26">
          <mxGeometry relative="1" as="geometry">
            <mxPoint x="505.20000000000005" y="200" as="targetPoint" />
          </mxGeometry>
        </mxCell>
        <mxCell id="ZBhVcWiEAXyir8KUt6d2-10" value="YES" style="edgeLabel;html=1;align=center;verticalAlign=middle;resizable=0;points=[];" vertex="1" connectable="0" parent="ZBhVcWiEAXyir8KUt6d2-6">
          <mxGeometry x="-0.1" y="-2" relative="1" as="geometry">
            <mxPoint as="offset" />
          </mxGeometry>
        </mxCell>
        <mxCell id="ZBhVcWiEAXyir8KUt6d2-30" style="edgeStyle=orthogonalEdgeStyle;rounded=0;orthogonalLoop=1;jettySize=auto;html=1;exitX=0.5;exitY=1;exitDx=0;exitDy=0;entryX=0.5;entryY=0;entryDx=0;entryDy=0;" edge="1" parent="WIyWlLk6GJQsqaUBKTNV-1" source="WIyWlLk6GJQsqaUBKTNV-6" target="ZBhVcWiEAXyir8KUt6d2-28">
          <mxGeometry relative="1" as="geometry" />
        </mxCell>
        <mxCell id="ZBhVcWiEAXyir8KUt6d2-34" value="NO" style="edgeLabel;html=1;align=center;verticalAlign=middle;resizable=0;points=[];" vertex="1" connectable="0" parent="ZBhVcWiEAXyir8KUt6d2-30">
          <mxGeometry x="-0.249" y="3" relative="1" as="geometry">
            <mxPoint as="offset" />
          </mxGeometry>
        </mxCell>
        <mxCell id="WIyWlLk6GJQsqaUBKTNV-6" value="按钮唤起/跳转&lt;br&gt;成功？" style="rhombus;whiteSpace=wrap;html=1;shadow=0;fontFamily=Helvetica;fontSize=12;align=center;strokeWidth=1;spacing=6;spacingTop=-4;" parent="WIyWlLk6GJQsqaUBKTNV-1" vertex="1">
          <mxGeometry x="285.2" y="160" width="160" height="80" as="geometry" />
        </mxCell>
        <mxCell id="ZBhVcWiEAXyir8KUt6d2-14" style="edgeStyle=orthogonalEdgeStyle;rounded=0;orthogonalLoop=1;jettySize=auto;html=1;exitX=0.5;exitY=1;exitDx=0;exitDy=0;entryX=0.5;entryY=0;entryDx=0;entryDy=0;" edge="1" parent="WIyWlLk6GJQsqaUBKTNV-1" source="ZBhVcWiEAXyir8KUt6d2-0" target="ZBhVcWiEAXyir8KUt6d2-13">
          <mxGeometry relative="1" as="geometry" />
        </mxCell>
        <mxCell id="ZBhVcWiEAXyir8KUt6d2-52" value="NO" style="edgeLabel;html=1;align=center;verticalAlign=middle;resizable=0;points=[];" vertex="1" connectable="0" parent="ZBhVcWiEAXyir8KUt6d2-14">
          <mxGeometry x="-0.4952" y="-3" relative="1" as="geometry">
            <mxPoint as="offset" />
          </mxGeometry>
        </mxCell>
        <mxCell id="ZBhVcWiEAXyir8KUt6d2-21" style="edgeStyle=orthogonalEdgeStyle;rounded=0;orthogonalLoop=1;jettySize=auto;html=1;exitX=0;exitY=0.5;exitDx=0;exitDy=0;entryX=0.58;entryY=-0.133;entryDx=0;entryDy=0;entryPerimeter=0;" edge="1" parent="WIyWlLk6GJQsqaUBKTNV-1" source="ZBhVcWiEAXyir8KUt6d2-0" target="ZBhVcWiEAXyir8KUt6d2-2">
          <mxGeometry relative="1" as="geometry" />
        </mxCell>
        <mxCell id="ZBhVcWiEAXyir8KUt6d2-53" value="YES" style="edgeLabel;html=1;align=center;verticalAlign=middle;resizable=0;points=[];" vertex="1" connectable="0" parent="ZBhVcWiEAXyir8KUt6d2-21">
          <mxGeometry x="-0.7502" y="-1" relative="1" as="geometry">
            <mxPoint as="offset" />
          </mxGeometry>
        </mxCell>
        <mxCell id="ZBhVcWiEAXyir8KUt6d2-0" value="尝试打开小程序&lt;br&gt;打开成功？" style="rhombus;whiteSpace=wrap;html=1;shadow=0;fontFamily=Helvetica;fontSize=12;align=center;strokeWidth=1;spacing=6;spacingTop=-4;" vertex="1" parent="WIyWlLk6GJQsqaUBKTNV-1">
          <mxGeometry x="285.2" y="552.55" width="164.8" height="77.45" as="geometry" />
        </mxCell>
        <mxCell id="ZBhVcWiEAXyir8KUt6d2-4" style="edgeStyle=orthogonalEdgeStyle;rounded=0;orthogonalLoop=1;jettySize=auto;html=1;exitX=0.5;exitY=1;exitDx=0;exitDy=0;entryX=0.5;entryY=0;entryDx=0;entryDy=0;" edge="1" parent="WIyWlLk6GJQsqaUBKTNV-1" source="ZBhVcWiEAXyir8KUt6d2-1" target="WIyWlLk6GJQsqaUBKTNV-6">
          <mxGeometry relative="1" as="geometry" />
        </mxCell>
        <mxCell id="ZBhVcWiEAXyir8KUt6d2-1" value="点击按钮" style="shape=parallelogram;perimeter=parallelogramPerimeter;whiteSpace=wrap;html=1;fixedSize=1;" vertex="1" parent="WIyWlLk6GJQsqaUBKTNV-1">
          <mxGeometry x="315.2" y="80" width="100" height="40" as="geometry" />
        </mxCell>
        <mxCell id="ZBhVcWiEAXyir8KUt6d2-2" value="结束" style="rounded=1;whiteSpace=wrap;html=1;fontSize=12;glass=0;strokeWidth=1;shadow=0;" vertex="1" parent="WIyWlLk6GJQsqaUBKTNV-1">
          <mxGeometry x="80" y="770" width="100" height="30" as="geometry" />
        </mxCell>
        <mxCell id="ZBhVcWiEAXyir8KUt6d2-13" value="降级到&lt;br&gt;卡片唤起/跳转逻辑" style="rounded=1;whiteSpace=wrap;html=1;fontSize=12;glass=0;strokeWidth=1;shadow=0;" vertex="1" parent="WIyWlLk6GJQsqaUBKTNV-1">
          <mxGeometry x="305.51" y="840" width="124.17" height="50" as="geometry" />
        </mxCell>
        <mxCell id="ZBhVcWiEAXyir8KUt6d2-19" style="edgeStyle=orthogonalEdgeStyle;rounded=0;orthogonalLoop=1;jettySize=auto;html=1;exitX=0;exitY=0.5;exitDx=0;exitDy=0;" edge="1" parent="WIyWlLk6GJQsqaUBKTNV-1" source="ZBhVcWiEAXyir8KUt6d2-18" target="ZBhVcWiEAXyir8KUt6d2-28">
          <mxGeometry relative="1" as="geometry">
            <mxPoint x="263.95000000000005" y="525" as="targetPoint" />
          </mxGeometry>
        </mxCell>
        <mxCell id="ZBhVcWiEAXyir8KUt6d2-18" value="点击卡片" style="shape=parallelogram;perimeter=parallelogramPerimeter;whiteSpace=wrap;html=1;fixedSize=1;" vertex="1" parent="WIyWlLk6GJQsqaUBKTNV-1">
          <mxGeometry x="130.00000000000006" y="310" width="100" height="40" as="geometry" />
        </mxCell>
        <mxCell id="ZBhVcWiEAXyir8KUt6d2-26" value="结束" style="rounded=1;whiteSpace=wrap;html=1;fontSize=12;glass=0;strokeWidth=1;shadow=0;" vertex="1" parent="WIyWlLk6GJQsqaUBKTNV-1">
          <mxGeometry x="510" y="185" width="100" height="30" as="geometry" />
        </mxCell>
        <mxCell id="ZBhVcWiEAXyir8KUt6d2-33" value="YES" style="edgeStyle=orthogonalEdgeStyle;rounded=0;orthogonalLoop=1;jettySize=auto;html=1;exitX=0.5;exitY=1;exitDx=0;exitDy=0;entryX=0.5;entryY=0;entryDx=0;entryDy=0;" edge="1" parent="WIyWlLk6GJQsqaUBKTNV-1" source="ZBhVcWiEAXyir8KUt6d2-28" target="ZBhVcWiEAXyir8KUt6d2-32">
          <mxGeometry relative="1" as="geometry" />
        </mxCell>
        <mxCell id="ZBhVcWiEAXyir8KUt6d2-38" style="edgeStyle=orthogonalEdgeStyle;rounded=0;orthogonalLoop=1;jettySize=auto;html=1;exitX=1;exitY=0.5;exitDx=0;exitDy=0;entryX=1.002;entryY=0.64;entryDx=0;entryDy=0;entryPerimeter=0;" edge="1" parent="WIyWlLk6GJQsqaUBKTNV-1" source="ZBhVcWiEAXyir8KUt6d2-28" target="ZBhVcWiEAXyir8KUt6d2-13">
          <mxGeometry relative="1" as="geometry">
            <Array as="points">
              <mxPoint x="690" y="330" />
              <mxPoint x="690" y="872" />
            </Array>
          </mxGeometry>
        </mxCell>
        <mxCell id="ZBhVcWiEAXyir8KUt6d2-39" value="NO" style="edgeLabel;html=1;align=center;verticalAlign=middle;resizable=0;points=[];" vertex="1" connectable="0" parent="ZBhVcWiEAXyir8KUt6d2-38">
          <mxGeometry x="-0.1277" relative="1" as="geometry">
            <mxPoint as="offset" />
          </mxGeometry>
        </mxCell>
        <mxCell id="ZBhVcWiEAXyir8KUt6d2-28" value="&lt;span&gt;card 下发了合法的&lt;br&gt;微信小程序结构？&lt;/span&gt;" style="rhombus;whiteSpace=wrap;html=1;shadow=0;fontFamily=Helvetica;fontSize=12;align=center;strokeWidth=1;spacing=6;spacingTop=-4;" vertex="1" parent="WIyWlLk6GJQsqaUBKTNV-1">
          <mxGeometry x="277.8" y="290" width="176.05" height="80" as="geometry" />
        </mxCell>
        <mxCell id="ZBhVcWiEAXyir8KUt6d2-35" style="edgeStyle=orthogonalEdgeStyle;rounded=0;orthogonalLoop=1;jettySize=auto;html=1;exitX=0.5;exitY=1;exitDx=0;exitDy=0;entryX=0.5;entryY=0;entryDx=0;entryDy=0;" edge="1" parent="WIyWlLk6GJQsqaUBKTNV-1" source="ZBhVcWiEAXyir8KUt6d2-32" target="ZBhVcWiEAXyir8KUt6d2-0">
          <mxGeometry relative="1" as="geometry" />
        </mxCell>
        <mxCell id="ZBhVcWiEAXyir8KUt6d2-36" value="YES" style="edgeLabel;html=1;align=center;verticalAlign=middle;resizable=0;points=[];" vertex="1" connectable="0" parent="ZBhVcWiEAXyir8KUt6d2-35">
          <mxGeometry x="-0.327" y="4" relative="1" as="geometry">
            <mxPoint as="offset" />
          </mxGeometry>
        </mxCell>
        <mxCell id="ZBhVcWiEAXyir8KUt6d2-40" value="" style="edgeStyle=orthogonalEdgeStyle;rounded=0;orthogonalLoop=1;jettySize=auto;html=1;exitX=1;exitY=0.5;exitDx=0;exitDy=0;entryX=1;entryY=0.25;entryDx=0;entryDy=0;" edge="1" parent="WIyWlLk6GJQsqaUBKTNV-1" source="ZBhVcWiEAXyir8KUt6d2-32" target="ZBhVcWiEAXyir8KUt6d2-13">
          <mxGeometry relative="1" as="geometry">
            <Array as="points">
              <mxPoint x="500" y="465" />
              <mxPoint x="500" y="853" />
            </Array>
          </mxGeometry>
        </mxCell>
        <mxCell id="ZBhVcWiEAXyir8KUt6d2-51" value="NO" style="edgeLabel;html=1;align=center;verticalAlign=middle;resizable=0;points=[];" vertex="1" connectable="0" parent="ZBhVcWiEAXyir8KUt6d2-40">
          <mxGeometry x="0.1987" y="3" relative="1" as="geometry">
            <mxPoint as="offset" />
          </mxGeometry>
        </mxCell>
        <mxCell id="ZBhVcWiEAXyir8KUt6d2-32" value="用户手机安装了微信？" style="rhombus;whiteSpace=wrap;html=1;shadow=0;fontFamily=Helvetica;fontSize=12;align=center;strokeWidth=1;spacing=6;spacingTop=-4;" vertex="1" parent="WIyWlLk6GJQsqaUBKTNV-1">
          <mxGeometry x="277.8" y="425" width="176.05" height="80" as="geometry" />
        </mxCell>
        <mxCell id="ZBhVcWiEAXyir8KUt6d2-45" value="&lt;div style=&quot;text-align: left&quot;&gt;上报 wx_mini_callup_suc 事件&lt;/div&gt;&lt;span style=&quot;font-family: &amp;#34;helvetica neue&amp;#34; , &amp;#34;helvetica neue&amp;#34; , &amp;#34;helvetica&amp;#34; , &amp;#34;arial&amp;#34; , &amp;#34;microsoft yahei&amp;#34; , &amp;#34;lantinghei sc&amp;#34; , &amp;#34;hiragino sans gb&amp;#34; , sans-serif ; font-size: small ; background-color: rgb(255 , 255 , 255)&quot;&gt;&lt;div style=&quot;text-align: left&quot;&gt;参数 url = ${小程序path}&lt;/div&gt;&lt;/span&gt;" style="text;html=1;strokeColor=#d6b656;fillColor=#fff2cc;align=center;verticalAlign=middle;whiteSpace=wrap;rounded=0;" vertex="1" parent="WIyWlLk6GJQsqaUBKTNV-1">
          <mxGeometry x="50" y="640" width="180" height="60" as="geometry" />
        </mxCell>
        <mxCell id="ZBhVcWiEAXyir8KUt6d2-48" value="&lt;div style=&quot;text-align: left&quot;&gt;上报 wx_mini_callup_failed 事件&lt;/div&gt;&lt;span style=&quot;font-family: &amp;#34;helvetica neue&amp;#34; , &amp;#34;helvetica neue&amp;#34; , &amp;#34;helvetica&amp;#34; , &amp;#34;arial&amp;#34; , &amp;#34;microsoft yahei&amp;#34; , &amp;#34;lantinghei sc&amp;#34; , &amp;#34;hiragino sans gb&amp;#34; , sans-serif ; font-size: small ; background-color: rgb(255 , 255 , 255)&quot;&gt;&lt;div style=&quot;text-align: left&quot;&gt;参数 url = ${小程序path}&lt;/div&gt;&lt;div style=&quot;text-align: left&quot;&gt;参数 fail_reason = &quot;wx_not_install&quot;&lt;/div&gt;&lt;/span&gt;" style="text;html=1;strokeColor=#d6b656;fillColor=#fff2cc;align=center;verticalAlign=middle;whiteSpace=wrap;rounded=0;" vertex="1" parent="WIyWlLk6GJQsqaUBKTNV-1">
          <mxGeometry x="440" y="505" width="220" height="60" as="geometry" />
        </mxCell>
        <mxCell id="ZBhVcWiEAXyir8KUt6d2-49" value="&lt;div style=&quot;text-align: left&quot;&gt;上报 wx_mini_callup_failed 事件&lt;/div&gt;&lt;span style=&quot;font-family: &amp;#34;helvetica neue&amp;#34; , &amp;#34;helvetica neue&amp;#34; , &amp;#34;helvetica&amp;#34; , &amp;#34;arial&amp;#34; , &amp;#34;microsoft yahei&amp;#34; , &amp;#34;lantinghei sc&amp;#34; , &amp;#34;hiragino sans gb&amp;#34; , sans-serif ; font-size: small ; background-color: rgb(255 , 255 , 255)&quot;&gt;&lt;div style=&quot;text-align: left&quot;&gt;参数 url = ${小程序path}&lt;/div&gt;&lt;div style=&quot;text-align: left&quot;&gt;参数 fail_reason = &quot;wx_mini_open_failed&quot;&lt;/div&gt;&lt;/span&gt;" style="text;html=1;strokeColor=#d6b656;fillColor=#fff2cc;align=center;verticalAlign=middle;whiteSpace=wrap;rounded=0;" vertex="1" parent="WIyWlLk6GJQsqaUBKTNV-1">
          <mxGeometry x="210" y="750" width="260" height="60" as="geometry" />
        </mxCell>
      </root>
    </mxGraphModel>
  </diagram>
</mxfile>
